<svg width="24" height="24" viewBox="0 0 24 24" fill="none" xmlns="http://www.w3.org/2000/svg">

<path d="M3.09375 9.02344C3.14719 9.07289 3.18258 9.12141 3.2182 9.18469C3.27445 9.27727 3.33516 9.33398 3.42188 9.39844C3.40641 9.40617 3.39094 9.41391 3.375 9.42188C3.27891 9.37711 3.23367 9.32695 3.18164 9.23578C3.16992 9.21586 3.1582 9.1957 3.14602 9.17508C3.12047 9.12375 3.10477 9.07945 3.09375 9.02344Z" fill="#082359"/>
<path d="M19.7343 14.0625C19.7498 14.078 19.7653 14.0934 19.7812 14.1094C19.7657 14.1248 19.7503 14.1403 19.7343 14.1562C19.725 14.2106 19.717 14.2655 19.7109 14.3203C19.6678 14.2477 19.653 14.194 19.664 14.1094C19.6872 14.0939 19.7104 14.0784 19.7343 14.0625Z" fill="#0F2D61"/>
<path d="M19.0781 14.4844C19.1091 14.4921 19.14 14.4998 19.1719 14.5078C19.1487 14.5155 19.1255 14.5233 19.1016 14.5312C19.0732 14.5781 19.0732 14.5781 19.0547 14.625C19.0315 14.625 19.0083 14.625 18.9844 14.625C19.0153 14.5786 19.0462 14.5322 19.0781 14.4844Z" fill="#173668"/>
<path d="M9.82031 11.6953C9.83578 11.7108 9.85125 11.7262 9.86719 11.7422C9.80578 11.7926 9.75844 11.8219 9.67969 11.8359C9.76758 11.7216 9.76758 11.7216 9.82031 11.6953Z" fill="#06265C"/>
<path d="M15.9959 0.611281C16.2731 0.594875 16.5338 0.687687 16.7974 0.762687C16.8466 0.776515 16.8959 0.790109 16.9451 0.803703C17.0412 0.830422 17.137 0.857375 17.2327 0.884562C17.3182 0.908703 17.4035 0.932375 17.4893 0.955344C17.6672 1.00316 17.8406 1.05167 18.0075 1.13183C18.0246 1.1398 18.042 1.14777 18.0598 1.15597C18.1104 1.17941 18.1608 1.20308 18.2109 1.22698C18.5355 1.3962 18.5355 1.3962 18.8906 1.41448C18.9788 1.36386 19.0434 1.28698 19.113 1.21386C19.3922 0.922531 19.6805 0.644797 20.1052 0.632375C20.2526 0.635422 20.397 0.651125 20.543 0.671984C20.5725 0.675969 20.5725 0.675969 20.6025 0.680187C20.7216 0.698937 20.8209 0.72964 20.9297 0.781672C20.9213 0.842844 20.9128 0.869797 20.8662 0.911515C20.8491 0.923234 20.8317 0.935187 20.8141 0.947375C20.441 1.22909 20.0466 1.76769 19.8984 2.21136C19.8652 2.52542 19.9959 2.79448 20.1267 3.07081C20.216 3.26136 20.2793 3.44464 20.2896 3.65581C20.2913 3.68417 20.2927 3.71253 20.2943 3.74159C20.2957 3.77323 20.2957 3.77323 20.2969 3.80511C20.3149 3.79597 20.3327 3.78659 20.351 3.77698C20.7387 3.578 20.7387 3.578 20.9063 3.59417C20.9198 3.66894 20.917 3.71839 20.8755 3.78308C20.8474 3.81847 20.8186 3.85362 20.7895 3.88855C20.7403 3.94808 20.6958 4.00972 20.6515 4.07323C20.6379 4.09269 20.6245 4.11191 20.6107 4.13183C20.5385 4.23941 20.5505 4.3348 20.5505 4.46136C20.55 4.48269 20.5498 4.50402 20.5495 4.52605C20.5418 4.78456 20.5418 4.78456 20.6515 5.00417C20.6705 5.01448 20.6892 5.02503 20.7087 5.03558C20.8083 5.10261 20.8083 5.10261 20.8291 5.17667C20.8331 5.23925 20.8331 5.23925 20.8315 5.29737C20.8371 5.36628 20.8643 5.3923 20.9063 5.44573C20.9177 5.49448 20.9177 5.49448 20.9238 5.54534C20.9414 5.63909 20.9721 5.68527 21.0382 5.75347C21.0987 5.81745 21.1158 5.83691 21.1334 5.9262C21.1066 6.06284 21.0485 6.20933 20.9297 6.28948C20.8957 6.29066 20.8615 6.29112 20.8273 6.29112C20.7708 6.29159 20.7708 6.29159 20.7188 6.31292C20.6733 6.3755 20.6433 6.43737 20.613 6.50839C20.5601 6.60355 20.4914 6.63097 20.3906 6.66448C20.4009 6.85128 20.4009 6.85128 20.4844 7.01605C20.4844 7.03152 20.4844 7.04698 20.4844 7.06292C20.5076 7.07066 20.5308 7.07839 20.5547 7.08636C20.5313 7.15667 20.5313 7.15667 20.4912 7.18175C20.4741 7.18995 20.4567 7.19816 20.4391 7.20659C20.3238 7.26706 20.2355 7.34487 20.1413 7.4337C20.0859 7.4848 20.0859 7.4848 20.0234 7.53261C19.9695 7.57808 19.9512 7.60527 19.9235 7.66808C19.8584 7.78081 19.7555 7.82347 19.6404 7.87316C19.5546 7.91089 19.4963 7.93878 19.4531 8.02386C19.444 8.09136 19.444 8.09136 19.4445 8.16308C19.4381 8.25777 19.4337 8.29902 19.3828 8.38128C19.2738 8.44503 19.166 8.4387 19.0446 8.408C18.9867 8.38855 18.93 8.36722 18.873 8.34472C18.8442 8.33394 18.8442 8.33394 18.8147 8.32292C18.7348 8.29222 18.6635 8.26292 18.5916 8.21628C18.54 8.183 18.54 8.183 18.4777 8.18862C18.4052 8.21839 18.3909 8.25237 18.3532 8.31987C18.3117 8.37753 18.3117 8.37753 18.2578 8.4223C18.1167 8.44058 17.9588 8.43073 17.8359 8.35198C17.7984 8.27675 17.8031 8.22472 17.8125 8.14105C17.8528 8.07284 17.902 8.01402 17.9531 7.95355C18.0173 7.87667 18.0377 7.82581 18.033 7.72269C18.0068 7.58464 17.913 7.48878 17.8141 7.3955C17.6489 7.2373 17.5561 7.04347 17.546 6.81542C17.5491 6.60308 17.662 6.42308 17.7614 6.2412C17.9491 5.89691 18.1685 5.47456 18.1172 5.07073C18.0441 4.988 17.9618 4.92237 17.8741 4.85558C17.6599 4.68097 17.5587 4.48105 17.4609 4.22698C17.3855 4.03925 17.2873 3.88152 17.1616 3.72261C17.0248 3.548 16.9153 3.38159 16.827 3.17769C16.7679 3.04503 16.6929 2.93417 16.6059 2.81839C16.5185 2.70097 16.4602 2.5812 16.4063 2.44573C16.3214 2.23948 16.2131 2.07167 16.0695 1.90081C15.9328 1.73628 15.8231 1.55745 15.7242 1.36808C15.716 1.35237 15.7078 1.33667 15.6994 1.3205C15.6839 1.2905 15.6684 1.26003 15.6534 1.2298C15.5834 1.09245 15.4828 1.00269 15.3677 0.903312C15.3513 0.88925 15.3352 0.874953 15.3183 0.860422C15.3061 0.849875 15.2939 0.839562 15.2812 0.828547C15.289 0.805344 15.2967 0.78214 15.3047 0.758234C15.3478 0.739953 15.3478 0.739953 15.4038 0.726594C15.4242 0.721672 15.4446 0.71675 15.4655 0.711594C15.4868 0.706672 15.5084 0.70175 15.5304 0.696828C15.5513 0.691672 15.5721 0.68675 15.5937 0.681359C15.7275 0.649484 15.859 0.626515 15.9959 0.611281Z" fill="#002B4B"/>
<path d="M2.76562 9.93492C2.85914 10.0062 2.90508 10.0889 2.96203 10.1913C3.07711 10.3924 3.21281 10.4787 3.4125 10.5888C3.50367 10.6395 3.58664 10.6945 3.66937 10.758C3.8243 10.8745 4.02164 10.9952 4.21875 11.013C4.30102 10.9448 4.36453 10.863 4.42969 10.7787C4.51711 10.7904 4.56586 10.7991 4.64062 10.849C4.69523 10.8666 4.69523 10.8666 4.75781 10.849C4.79039 10.8197 4.79039 10.8197 4.82367 10.7815C4.90945 10.6891 5.00672 10.6235 5.11219 10.556C5.13656 10.5398 5.13656 10.5398 5.16164 10.5234C5.27789 10.4508 5.27789 10.4508 5.35477 10.4496C5.44172 10.4855 5.52539 10.526 5.60883 10.5691C5.63484 10.5825 5.63484 10.5825 5.66156 10.5961C5.70398 10.6177 5.74664 10.6395 5.78906 10.6615C5.77758 10.7728 5.74992 10.8366 5.68219 10.9252C5.66531 10.9474 5.64867 10.9699 5.63156 10.9929C5.59687 11.0362 5.56102 11.0789 5.52398 11.1204C5.42602 11.2245 5.42602 11.2245 5.38477 11.3562C5.38758 11.396 5.39086 11.4359 5.39437 11.4757C5.39062 11.5287 5.39062 11.5287 5.35969 11.5713C5.31703 11.6081 5.27414 11.6391 5.22656 11.6693C5.21297 11.6782 5.19914 11.6871 5.18508 11.696C5.17266 11.7042 5.16023 11.7122 5.14734 11.7206C5.07961 11.7584 5.07961 11.7584 5.0625 11.8334C5.0768 11.8376 5.09086 11.8418 5.10562 11.8463C5.12508 11.8521 5.14477 11.858 5.16516 11.8641C5.18672 11.8704 5.20828 11.8767 5.23078 11.8833C5.27109 11.8957 5.31117 11.9091 5.35055 11.9241C5.47945 11.9705 5.60203 11.9827 5.73773 11.9857C5.76352 11.9869 5.76352 11.9869 5.78953 11.9878C5.88234 11.9878 5.92453 11.9782 5.99766 11.9196C6.04852 11.8547 6.08391 11.7914 6.11719 11.7162C6.13266 11.7169 6.14836 11.7178 6.1643 11.7188C6.32859 11.7248 6.32859 11.7248 6.46875 11.6459C6.47906 11.6297 6.48937 11.6137 6.50016 11.5971C6.53906 11.5521 6.53906 11.5521 6.58969 11.5404C6.71578 11.5434 6.81609 11.5627 6.93375 11.6067C7.03758 11.6391 7.13789 11.6323 7.24219 11.6018C7.34016 11.5978 7.37812 11.6409 7.45148 11.7021C7.49836 11.7384 7.53914 11.7586 7.59375 11.7806C7.70297 11.831 7.76039 11.9168 7.82906 12.0129C7.89445 12.0909 7.95445 12.1308 8.055 12.15C8.07539 12.1514 8.09578 12.1528 8.11664 12.1542C8.15344 12.1566 8.19 12.1591 8.22656 12.1615C8.22703 12.1821 8.22703 12.1821 8.22727 12.2032C8.23687 12.3792 8.29406 12.5116 8.37445 12.6668C8.39156 12.702 8.39156 12.702 8.40914 12.7376C8.46 12.8564 8.46 12.8564 8.55609 12.9312C8.61516 12.9361 8.63953 12.9195 8.68945 12.888C8.77125 12.8449 8.83359 12.828 8.92781 12.8452C9.01008 12.878 9.07172 12.9347 9.13641 12.9935C9.18539 13.0322 9.18539 13.0322 9.24492 13.0404C9.32953 13.0237 9.36539 12.982 9.42633 12.9218C9.52664 12.8248 9.63047 12.7432 9.74695 12.6663C9.8025 12.6293 9.8025 12.6293 9.85406 12.5613C9.93797 12.4938 10.0055 12.5018 10.1105 12.5044C10.1719 12.513 10.2124 12.5287 10.2656 12.5599C10.2652 12.5831 10.2645 12.6061 10.264 12.63C10.2635 12.66 10.263 12.69 10.2628 12.7212C10.2619 12.7659 10.2619 12.7659 10.2609 12.8116C10.2572 12.8902 10.2572 12.8902 10.3125 12.9349C10.3854 12.9403 10.4531 12.9305 10.5234 12.9115C10.6141 12.8334 10.6561 12.7191 10.7051 12.6117C10.7344 12.5599 10.7344 12.5599 10.8047 12.513C10.8588 12.5749 10.913 12.6368 10.9687 12.7005C11.0773 12.69 11.0773 12.69 11.1094 12.6537C11.1581 12.6539 11.2071 12.6562 11.2559 12.6595C11.2826 12.6612 11.3093 12.6626 11.3367 12.6642C11.4354 12.6806 11.501 12.7078 11.5624 12.7882C11.5845 12.8627 11.5748 12.9307 11.5709 13.008C11.5709 13.0952 11.5755 13.1644 11.6362 13.2305C11.7103 13.2888 11.7898 13.3341 11.8725 13.3791C11.9243 13.4079 11.9508 13.4238 11.9866 13.4719C12.0035 13.5335 12.0101 13.5921 12.0145 13.6556C12.0164 13.6786 12.018 13.7018 12.0199 13.7255C12.0211 13.743 12.0223 13.7606 12.0234 13.7787C12.1334 13.7902 12.1884 13.7843 12.2798 13.7201C12.3441 13.677 12.394 13.65 12.4716 13.6425C12.5728 13.6636 12.585 13.6765 12.6445 13.7552C12.6647 13.7862 12.6844 13.8173 12.7031 13.849C12.7596 13.8464 12.7596 13.8464 12.8203 13.8255C12.8634 13.7679 12.8634 13.7679 12.8906 13.7084C12.9511 13.717 12.9773 13.7229 13.016 13.7719C13.0308 13.7963 13.0308 13.7962 13.0458 13.8211C13.1177 13.9237 13.188 13.9519 13.3043 13.991C13.383 14.0224 13.4229 14.0658 13.4766 14.1302C13.597 14.0895 13.6751 14.0182 13.7695 13.9352C13.8359 13.8907 13.867 13.8834 13.9453 13.8959C13.9877 13.9427 13.9877 13.9427 14.0156 13.9896C14.0316 13.9819 14.0475 13.9741 14.0639 13.9662C14.1466 13.938 14.2099 13.9348 14.2969 13.9427C14.3423 13.9751 14.3423 13.9751 14.3672 14.013C14.3672 14.0285 14.3672 14.044 14.3672 14.0599C14.3782 14.0501 14.3895 14.0402 14.4007 14.0299C14.5174 13.9334 14.6123 13.8886 14.7656 13.8959C14.7811 13.9036 14.7966 13.9113 14.8125 13.9193C15.0227 13.9366 15.1861 13.9179 15.375 13.8255C15.3982 13.8178 15.4214 13.8101 15.4453 13.8021C15.4507 13.8148 15.4561 13.8277 15.4617 13.8405C15.5102 13.947 15.5426 14.0163 15.6562 14.0599C15.7418 14.0789 15.8273 14.0939 15.9141 14.1068C15.9255 14.2559 15.9255 14.2559 15.87 14.328C15.8203 14.3646 15.8203 14.3646 15.7734 14.3646C15.8058 14.4703 15.8461 14.5146 15.9375 14.5755C15.9987 14.6077 16.0601 14.6384 16.1224 14.6681C16.1719 14.6927 16.1719 14.6927 16.1953 14.7162C16.196 14.7572 16.1965 14.7982 16.1967 14.8392C16.2033 14.9391 16.2033 14.9391 16.2612 15.0162C16.3085 15.0448 16.3556 15.0687 16.4062 15.0912C16.4524 15.1373 16.437 15.2269 16.4398 15.2895C16.4573 15.3675 16.4845 15.393 16.5469 15.4427C16.617 15.48 16.6884 15.5119 16.7606 15.5445C16.8366 15.5883 16.8755 15.6267 16.9219 15.7005C16.931 15.7582 16.931 15.7582 16.9277 15.8133C16.9268 15.8318 16.9261 15.8503 16.9252 15.8695C16.9235 15.8902 16.9235 15.8902 16.9219 15.9115C17.0388 15.9727 17.1284 16.0085 17.2603 16.008C17.2777 16.0083 17.295 16.0083 17.3128 16.0083C17.3677 16.0066 17.3677 16.0066 17.4216 15.9928C17.4862 15.9816 17.5448 15.9841 17.6102 15.9881C17.8357 15.9994 18.0455 15.9584 18.2637 15.9056C18.2932 15.8986 18.3227 15.8916 18.3532 15.8843C18.5433 15.8362 18.6797 15.792 18.8058 15.6361C18.8175 15.6218 18.8292 15.6073 18.8414 15.5925C18.8498 15.5817 18.8585 15.5709 18.8672 15.5599C18.9101 15.5644 18.9101 15.5644 18.9609 15.5834C18.9956 15.6352 18.9956 15.6352 19.0254 15.6991C19.0404 15.7305 19.0404 15.7305 19.0559 15.7627C19.0781 15.8177 19.0781 15.8177 19.0781 15.8646C19.3181 15.7263 19.3181 15.7263 19.4766 15.513C19.4773 15.4305 19.4773 15.4305 19.4677 15.3431C19.4651 15.3136 19.4625 15.2838 19.4599 15.2534C19.4576 15.2309 19.4555 15.2081 19.4531 15.1849C19.485 15.1669 19.485 15.1669 19.5176 15.1484C19.5326 15.1397 19.5476 15.131 19.563 15.1221C19.6022 15.0998 19.6413 15.0778 19.6807 15.0558C19.8061 14.985 19.9235 14.9107 20.0377 14.823C20.1366 14.7473 20.2369 14.6759 20.3423 14.6093C20.3667 14.5938 20.3911 14.5781 20.4162 14.5622C20.4881 14.5268 20.523 14.5151 20.6016 14.5287C20.8561 14.674 21.038 14.9341 21.1788 15.1837C21.2241 15.2515 21.282 15.2848 21.3516 15.3255C21.4467 15.4249 21.4896 15.5381 21.5391 15.664C21.6874 16.0388 21.9195 16.1782 22.2656 16.3568C22.2729 16.4227 22.2729 16.4227 22.2656 16.4974C22.1712 16.5846 22.0334 16.5975 21.9112 16.6235C21.7739 16.6538 21.6476 16.6819 21.5229 16.7494C21.3668 16.8298 21.1952 16.8199 21.0234 16.8232C20.9707 16.8248 20.9707 16.8248 20.8957 16.8398C20.8662 16.8443 20.8662 16.8443 20.8359 16.849C20.812 16.826 20.7886 16.8026 20.7656 16.7787C20.7035 16.7841 20.7035 16.7841 20.6484 16.8021C20.7157 16.9927 20.8024 17.0775 20.9709 17.1839C21.0539 17.2472 21.067 17.2945 21.0818 17.3972C21.0862 17.442 21.0862 17.442 21.0909 17.4877C21.1139 17.6862 21.1139 17.6862 21.2109 17.8568C21.2555 17.8913 21.2995 17.9194 21.3492 17.9459C21.502 18.0333 21.502 18.0333 21.5334 18.1123C21.5473 18.165 21.5583 18.2177 21.5684 18.2714C21.5827 18.39 21.5827 18.39 21.6328 18.4896C21.7148 18.4809 21.7955 18.4711 21.8763 18.4552C21.9298 18.446 21.9771 18.4392 22.0312 18.4427C22.0927 18.4955 22.0927 18.4955 22.125 18.5599C22.1173 18.5831 22.1095 18.6063 22.1016 18.6302C22.0502 18.6534 22.0502 18.6534 21.9844 18.6743C21.8946 18.7041 21.8182 18.7366 21.7383 18.787C21.6368 18.8473 21.5475 18.855 21.4308 18.8566C21.3626 18.8665 21.3466 18.8813 21.3047 18.9349C21.2939 18.9851 21.2939 18.9851 21.2953 19.0411C21.2948 19.0624 21.2946 19.084 21.2944 19.106C21.2944 19.1292 21.2944 19.1524 21.2946 19.1761C21.2944 19.212 21.2944 19.212 21.2941 19.2485C21.2939 19.2994 21.2941 19.35 21.2941 19.4006C21.2944 19.4777 21.2937 19.5548 21.293 19.632C21.293 19.6812 21.293 19.7304 21.293 19.7796C21.2927 19.8026 21.2925 19.8255 21.2923 19.849C21.2944 20.0625 21.3609 20.1961 21.5098 20.3484C21.5909 20.4352 21.668 20.5221 21.7397 20.6166C21.7547 20.6363 21.7697 20.6559 21.7852 20.6763C21.8302 20.7572 21.8433 20.8106 21.8437 20.9037C21.8177 20.9728 21.7809 21.034 21.7427 21.097C21.6558 21.2489 21.5979 21.3825 21.5859 21.5599C21.5655 21.5524 21.5655 21.5524 21.5445 21.5445C21.3708 21.4856 21.1835 21.4434 21.0075 21.5152C20.966 21.5363 20.9248 21.5578 20.8833 21.5791C20.7483 21.6319 20.6046 21.6281 20.4609 21.6302C20.4595 21.6642 20.4595 21.6642 20.4584 21.6989C20.4352 22.1592 20.4352 22.1592 20.2734 22.3334C20.212 22.3819 20.1478 22.4257 20.0831 22.4695C20.0473 22.4944 20.0114 22.5195 19.9755 22.5443C19.9584 22.5565 19.9411 22.5684 19.9233 22.5809C19.6577 22.7665 19.568 22.9003 19.4794 23.209C19.4482 23.2826 19.4306 23.3051 19.3594 23.3412C19.2923 23.3541 19.2293 23.363 19.1616 23.3691C19.1423 23.3709 19.1229 23.3726 19.103 23.3745C18.9518 23.3876 18.8006 23.3937 18.649 23.3953C18.618 23.396 18.618 23.396 18.5866 23.3967C18.4495 23.3965 18.3487 23.378 18.2426 23.2833C18.2325 23.2709 18.2227 23.2587 18.2123 23.246C18.1948 23.2242 18.1948 23.2242 18.1767 23.2022C18.1385 23.1509 18.1031 23.0984 18.0675 23.0454C17.9958 22.9418 17.9177 22.8464 17.8345 22.7524C17.8228 22.7386 17.8113 22.725 17.7994 22.7109C17.741 22.6467 17.708 22.6163 17.6208 22.6045C17.553 22.613 17.553 22.613 17.4844 22.638C17.4605 22.6891 17.4605 22.6891 17.4375 22.7552C17.4232 22.7843 17.4084 22.8129 17.3934 22.8417C17.3456 22.9352 17.3081 23.0316 17.2718 23.1302C17.25 23.1771 17.25 23.1771 17.2031 23.2005C17.1799 23.1851 17.1567 23.1696 17.1328 23.1537C17.13 23.1145 17.13 23.1145 17.127 23.0745C17.1185 22.9917 17.1185 22.9917 17.0749 22.958C16.9924 22.9092 16.9509 22.8959 16.8516 22.8959C16.8427 22.9209 16.834 22.946 16.8248 22.972C16.8129 23.0046 16.8007 23.0374 16.7885 23.0702C16.7801 23.0951 16.7801 23.0951 16.7712 23.1204C16.7257 23.2406 16.7257 23.2406 16.6545 23.273C16.5858 23.2706 16.5457 23.2549 16.4838 23.2254C16.3409 23.168 16.2108 23.1705 16.0591 23.1785C15.9813 23.1818 15.926 23.1834 15.8562 23.1464C15.8203 23.1068 15.8203 23.1068 15.7969 23.0365C15.7774 23.0363 15.7774 23.0363 15.7575 23.0363C15.2421 23.0295 15.2421 23.0295 15.0937 22.8959C15.038 22.8218 14.9965 22.743 14.9531 22.6615C14.9311 22.6277 14.9081 22.5945 14.8842 22.5619C14.8744 22.5483 14.8645 22.5345 14.8545 22.5204C14.7316 22.384 14.6126 22.309 14.4389 22.2513C14.3995 22.2375 14.3602 22.2237 14.3208 22.2098C14.3013 22.203 14.2816 22.1962 14.2612 22.1895C14.1727 22.1588 14.0845 22.1269 13.9966 22.0945C13.9816 22.0894 13.9666 22.084 13.9512 22.0786C13.7948 22.0214 13.6589 21.9382 13.5703 21.7943C13.5394 21.7228 13.511 21.6506 13.4827 21.5782C13.4452 21.4952 13.4039 21.4547 13.3359 21.3959C13.2502 21.2552 13.286 21.0823 13.3125 20.9271C13.2661 20.9271 13.2197 20.9271 13.1719 20.9271C13.1564 20.8962 13.1409 20.8652 13.125 20.8334C13.069 20.884 13.0409 20.928 13.0123 20.9974C12.9668 21.0942 12.9171 21.1163 12.8203 21.1615C12.7884 21.213 12.7884 21.213 12.7969 21.2787C12.8184 21.327 12.8433 21.3729 12.8684 21.4198C12.9014 21.4884 12.9073 21.5323 12.8906 21.6068C12.7772 21.7455 12.6389 21.7495 12.4687 21.7709C12.2812 21.7988 12.2812 21.7988 12.1172 21.888C12.0736 21.9534 12.0626 21.986 12.0455 22.0594C12.0021 22.1967 11.9086 22.2417 11.7891 22.3099C11.7738 22.3228 11.7586 22.3357 11.7429 22.3488C11.6794 22.3908 11.6529 22.395 11.5781 22.3802C11.5202 22.3392 11.4705 22.2989 11.4185 22.2513C11.4033 22.2377 11.388 22.2244 11.3726 22.2103C10.6472 21.555 10.6472 21.555 10.6092 21.2355C10.6071 21.053 10.6305 20.8849 10.6641 20.7059C10.7358 20.3194 10.747 19.9659 10.5359 19.616C10.3387 19.3502 10.0568 19.2574 9.74273 19.203C9.69094 19.1932 9.63937 19.1836 9.58781 19.1735C9.55101 19.1665 9.55101 19.1665 9.51328 19.1595C9.3082 19.1187 9.09258 19.0746 8.92969 18.9349C8.87016 18.8456 8.86641 18.7802 8.88281 18.6771C8.91023 18.5986 8.94117 18.5224 8.97445 18.4463C9.00094 18.3696 9.00492 18.3122 9 18.2318C8.92922 18.2009 8.86148 18.18 8.78625 18.1643C8.72367 18.1491 8.69789 18.1404 8.64844 18.097C8.61703 18.0263 8.61797 17.9813 8.625 17.9037C8.64937 17.8413 8.68125 17.7844 8.7143 17.7265C8.72273 17.7113 8.73117 17.696 8.73961 17.6805C8.77617 17.6147 8.81344 17.5505 8.85375 17.487C8.88844 17.4347 8.88844 17.4347 8.88281 17.3646C8.85375 17.2777 8.81062 17.2369 8.74219 17.1771C8.73445 17.1694 8.72672 17.1616 8.71875 17.1537C8.67445 17.1511 8.62992 17.1495 8.58539 17.1478C8.39977 17.1321 8.39976 17.1321 8.3257 17.0552C8.21414 16.8919 8.17242 16.7074 8.13422 16.5164C8.08758 16.2881 8.00039 16.158 7.84266 15.9877C7.485 15.5986 7.39148 15.135 7.35281 14.6248C7.31977 14.0438 7.31977 14.0437 7.0268 13.5619C6.79617 13.3786 6.49078 13.3589 6.20836 13.3336C5.80828 13.2973 5.48672 13.2263 5.13984 13.0186C5.12461 13.0097 5.10937 13.0005 5.09367 12.9912C5.05195 12.9661 5.01023 12.9408 4.96875 12.9155C4.755 12.7884 4.53586 12.6952 4.30359 12.6068C3.82266 12.4228 3.37008 12.2048 2.95758 11.8934C2.94187 11.8816 2.92617 11.8699 2.91 11.8577C2.66062 11.6651 2.47758 11.4422 2.30578 11.1816C2.2868 11.1534 2.26805 11.1255 2.2493 11.0977C2.19398 11.0152 2.13984 10.9322 2.08594 10.849C2.07703 10.8352 2.06789 10.8213 2.05875 10.8073C2.0325 10.7667 2.00672 10.7259 1.98094 10.6854C1.96594 10.6617 1.95094 10.6383 1.9357 10.6139C1.88555 10.5202 1.86563 10.4273 1.845 10.324C1.82039 10.2349 1.77305 10.1895 1.71094 10.1224C1.71094 10.0915 1.71094 10.0605 1.71094 10.0287C1.92234 9.95953 2.07937 9.90937 2.29687 9.9818C2.39484 9.98953 2.46773 9.9825 2.5575 9.94523C2.63695 9.91336 2.68383 9.89953 2.76562 9.93492Z" fill="#002B4B"/>
</svg>
